 <svg  version="1.0" xmlns="http://www.w3.org/2000/svg"  width="900.000000pt" height="900.000000pt" viewBox="0 0 900.000000 900.000000"  preserveAspectRatio="xMidYMid meet">  <g transform="translate(0.000000,900.000000) scale(0.100000,-0.100000)" fill="#f11e1e" stroke="none"> <path d="M4355 6570 c-66 -9 -142 -23 -170 -30 -72 -19 -314 -100 -353 -118 -117 -56 -304 -158 -337 -184 -5 -4 -39 -29 -75 -55 -36 -25 -69 -52 -73 -60 -4 -7 -14 -13 -22 -13 -16 0 -253 -232 -315 -308 -65 -81 -140 -186 -140 -196 0 -5 -8 -18 -17 -28 -20 -22 -51 -73 -85 -138 -13 -25 -26 -47 -29 -50 -15 -13 -72 -140 -66 -146 4 -4 62 -2 130 5 67 7 199 16 292 21 94 6 211 14 260 20 50 5 162 14 250 20 114 8 164 15 175 25 9 8 31 15 48 15 43 0 40 18 -4 26 -32 6 -123 1 -434 -24 -36 -3 -114 -6 -175 -7 -60 -2 -149 -6 -197 -10 -48 -4 -112 -4 -142 -1 -49 7 -56 10 -56 29 0 34 69 165 91 172 12 4 19 15 19 32 0 18 14 40 45 70 25 23 60 66 79 95 31 48 142 166 274 290 27 26 68 57 91 69 22 11 41 25 41 30 0 4 24 23 54 41 29 18 82 52 117 76 35 23 71 42 80 42 9 0 22 6 28 14 19 22 89 56 116 56 14 0 50 14 80 30 30 17 64 30 75 30 11 0 34 6 52 14 84 37 144 49 388 81 25 3 72 10 105 17 33 6 71 11 85 10 75 0 232 -12 275 -21 28 -5 89 -17 136 -25 135 -24 200 -41 248 -65 25 -11 55 -21 68 -21 31 0 88 -24 137 -58 21 -14 53 -31 70 -37 65 -23 247 -127 263 -151 20 -30 13 -37 -37 -40 -21 -1 -46 -9 -55 -18 -11 -11 -34 -16 -72 -16 -30 0 -81 -7 -112 -15 -32 -8 -92 -17 -133 -19 -42 -3 -86 -10 -99 -15 -13 -5 -87 -17 -164 -26 -161 -20 -240 -36 -310 -63 -62 -25 -44 -36 47 -29 126 11 284 28 333 38 28 5 88 14 135 19 47 5 126 17 175 25 50 9 128 20 175 25 47 6 107 14 133 20 26 5 83 10 125 10 77 0 102 9 102 37 0 8 -8 16 -17 20 -32 11 -133 76 -133 84 0 5 -5 9 -11 9 -6 0 -41 20 -78 45 -37 25 -72 45 -79 45 -7 0 -12 4 -12 10 0 5 -15 16 -32 24 -18 8 -44 22 -58 30 -34 20 -180 86 -191 86 -5 0 -17 4 -27 9 -9 5 -42 17 -72 28 -30 11 -71 25 -90 32 -68 25 -222 58 -330 71 -125 15 -460 9 -595 -10z"/> <path d="M6150 5890 c-41 -5 -210 -13 -375 -19 -165 -6 -361 -16 -435 -21 -212 -16 -482 -30 -491 -25 -4 3 -15 2 -25 -2 -16 -6 -16 -7 2 -14 10 -4 35 -8 54 -9 31 -1 33 -2 18 -14 -10 -7 -18 -16 -18 -20 0 -9 58 -7 64 2 3 5 61 10 128 10 68 1 182 5 253 8 263 12 325 14 575 22 341 10 359 5 432 -114 18 -30 40 -56 48 -59 9 -3 24 -22 35 -42 10 -21 26 -47 36 -58 16 -20 38 -58 59 -105 7 -14 18 -36 26 -50 31 -57 53 -107 63 -147 7 -23 23 -55 36 -71 17 -21 25 -42 25 -69 0 -27 6 -46 20 -58 15 -13 20 -31 20 -67 0 -26 -4 -48 -8 -48 -5 0 -21 13 -36 29 -23 24 -39 30 -91 36 -51 5 -73 13 -109 41 -25 19 -49 34 -55 34 -6 0 -25 6 -43 14 -18 7 -58 21 -88 31 -30 9 -73 26 -96 36 -22 11 -57 19 -78 19 -20 0 -47 5 -59 12 -12 6 -40 15 -62 19 -66 12 -209 50 -220 59 -5 4 -64 11 -130 15 -66 4 -136 9 -155 11 -90 9 -245 16 -345 15 -60 -1 -132 -1 -160 -1 -27 -1 -96 -7 -151 -15 -56 -8 -124 -15 -152 -15 -28 0 -84 -11 -124 -24 -40 -13 -98 -29 -128 -36 -30 -7 -66 -18 -80 -25 -14 -7 -43 -16 -64 -20 -22 -3 -56 -15 -75 -25 -20 -11 -58 -24 -84 -31 -26 -6 -59 -21 -73 -31 -29 -24 -101 -63 -134 -73 -26 -8 -136 -93 -190 -146 -19 -19 -54 -45 -75 -56 -54 -28 -207 -55 -335 -58 -58 -2 -161 -12 -230 -23 -120 -20 -153 -25 -354 -58 -48 -7 -93 -11 -98 -8 -5 3 -6 20 -2 37 5 18 8 59 9 92 2 77 21 164 41 187 25 27 168 66 269 73 50 3 110 12 135 20 103 31 157 45 195 50 40 6 65 9 298 41 85 12 127 22 127 30 0 7 21 15 53 19 68 9 87 14 87 26 0 18 -219 0 -395 -31 -50 -9 -170 -29 -345 -56 -52 -8 -131 -21 -175 -29 -109 -20 -200 -35 -259 -43 l-50 -7 -18 -60 c-10 -33 -18 -72 -18 -86 0 -15 -7 -43 -15 -62 -8 -21 -15 -67 -15 -106 0 -38 -4 -72 -9 -75 -14 -9 -25 -106 -13 -118 8 -8 28 -5 69 10 32 11 87 25 123 32 88 14 243 39 310 49 30 5 80 13 110 19 54 10 377 28 453 24 51 -2 68 8 143 88 55 58 157 137 228 176 66 37 203 101 276 129 91 35 117 43 215 65 55 13 111 26 125 31 63 20 221 39 392 47 198 10 596 -2 636 -19 13 -5 35 -9 50 -9 34 0 251 -40 277 -51 11 -5 39 -13 63 -19 112 -27 129 -32 159 -45 17 -8 40 -15 51 -15 12 0 23 -4 27 -9 3 -5 20 -13 38 -16 26 -6 170 -70 237 -105 8 -4 51 -27 95 -49 44 -23 103 -61 130 -86 52 -46 95 -59 95 -27 0 9 -9 49 -20 87 -11 39 -25 93 -31 120 -16 72 -66 220 -95 280 -13 29 -24 56 -24 62 0 5 -22 51 -50 102 -27 51 -50 94 -50 96 0 9 -114 172 -163 233 -29 36 -64 81 -80 101 -32 41 -46 51 -67 49 -8 0 -49 -4 -90 -8z"/> <path d="M3947 5374 c-4 -4 -7 -11 -7 -16 0 -13 50 -6 53 7 2 12 -36 19 -46 9z"/> <path d="M3861 5251 c-12 -8 -12 -12 -2 -25 17 -21 28 -20 58 4 24 19 24 20 5 20 -11 0 -26 2 -34 5 -7 3 -19 1 -27 -4z"/> <path d="M5059 5035 c-135 -7 -269 -18 -298 -24 -28 -6 -80 -11 -114 -11 -41 0 -88 -9 -137 -26 -41 -14 -88 -30 -105 -34 -40 -11 -122 -43 -176 -68 -170 -79 -199 -94 -204 -102 -4 -6 -12 -10 -19 -10 -8 0 -50 -20 -95 -45 -45 -25 -87 -45 -94 -45 -6 0 -25 -11 -42 -24 l-30 -24 25 -6 c14 -4 83 0 155 9 71 8 199 15 283 15 131 0 154 -2 159 -16 10 -26 -13 -32 -156 -38 -75 -4 -199 -11 -276 -17 -77 -5 -176 -12 -220 -15 -81 -5 -208 -24 -325 -49 -36 -8 -86 -17 -112 -20 -26 -3 -50 -10 -53 -16 -4 -5 -20 -9 -38 -9 -17 0 -49 -6 -72 -14 -22 -8 -69 -22 -105 -32 -74 -20 -232 -78 -272 -100 -14 -7 -35 -14 -46 -14 -11 0 -25 -7 -32 -15 -7 -8 -22 -15 -34 -15 -12 0 -27 -5 -34 -12 -9 -9 -15 -9 -23 -1 -17 17 -4 41 28 55 15 7 30 15 33 18 6 6 233 95 268 105 23 7 47 40 34 49 -9 5 -186 -20 -252 -36 -25 -6 -58 -13 -75 -15 -28 -4 -79 -24 -115 -44 -8 -5 -24 -13 -35 -18 -28 -13 -136 -102 -149 -124 -18 -28 5 -35 153 -41 75 -3 203 -11 284 -18 111 -8 172 -8 245 0 53 7 189 14 302 17 269 7 495 21 545 34 22 6 67 11 100 11 33 0 89 5 125 10 36 6 106 15 155 21 50 6 109 17 133 25 23 8 58 14 76 14 20 0 36 6 39 14 12 30 65 44 179 46 206 4 211 1 144 -72 l-41 -45 -102 -5 c-56 -3 -106 -2 -111 1 -5 3 -14 16 -21 29 -13 25 -41 30 -41 7 0 -18 -72 -54 -107 -55 -12 0 -24 -4 -28 -9 -3 -5 -20 -13 -37 -17 -18 -3 -39 -10 -48 -15 -8 -5 -51 -22 -95 -39 -44 -17 -93 -37 -110 -44 -101 -45 -191 -61 -412 -70 l-121 -6 -44 36 c-49 42 -61 47 -142 65 -47 10 -71 10 -130 0 -115 -21 -453 -26 -564 -8 -82 14 -98 14 -134 1 -50 -17 -67 -31 -79 -61 -13 -34 -33 -38 -100 -18 -32 10 -62 15 -67 11 -12 -12 -31 -240 -20 -253 6 -8 39 -9 107 -6 119 7 167 0 174 -26 9 -37 -6 -44 -66 -26 -68 20 -162 17 -162 -5 0 -11 24 -18 99 -27 55 -7 104 -17 110 -23 5 -5 27 -10 47 -10 34 0 67 -8 188 -46 58 -18 173 -18 235 1 27 8 67 15 88 15 22 0 48 5 58 10 11 6 54 13 97 16 43 4 87 12 98 17 12 7 132 14 290 18 303 8 379 20 355 58 -7 13 -11 13 -25 1 -24 -20 -156 -32 -362 -34 -168 -1 -207 3 -190 21 4 3 67 8 139 11 73 2 139 9 146 15 8 6 67 13 133 15 65 3 119 7 119 11 0 3 -14 14 -30 23 -47 27 -44 33 47 92 28 18 78 42 110 51 32 10 100 38 151 62 51 23 103 43 115 43 13 0 28 5 35 12 21 21 22 3 2 -35 -11 -20 -20 -44 -20 -54 0 -9 -6 -24 -14 -32 -33 -39 -49 -121 -43 -225 8 -136 28 -217 72 -301 l37 -70 -23 -18 c-16 -13 -36 -17 -73 -15 -48 3 -51 5 -57 35 -7 37 -53 101 -78 111 -9 3 -29 15 -44 26 -17 13 -52 23 -90 27 -129 14 -184 32 -155 50 7 5 41 18 76 30 34 11 60 25 56 30 -8 13 -516 12 -550 -1 -15 -6 -62 -15 -103 -20 -92 -11 -182 -26 -276 -46 -39 -9 -129 -16 -200 -17 -130 -1 -152 3 -296 48 -26 8 -57 15 -70 15 -13 0 -37 7 -53 15 -16 8 -66 18 -111 21 -79 7 -83 6 -95 -16 -15 -28 2 -121 26 -141 17 -14 92 -28 212 -37 57 -5 86 -12 92 -22 42 -73 121 -130 178 -130 53 0 102 -13 102 -26 0 -22 -65 -32 -270 -44 -297 -16 -330 -21 -330 -50 0 -19 7 -20 113 -21 61 0 157 0 212 1 55 0 429 5 830 11 402 5 764 13 805 19 41 5 131 9 200 10 69 0 184 7 255 15 72 8 166 15 210 15 44 0 125 7 180 15 55 8 134 15 175 15 41 0 107 5 145 11 39 6 133 14 210 19 253 16 439 30 525 41 47 6 153 15 235 20 83 4 170 13 195 18 25 6 74 10 110 11 36 0 92 4 125 9 33 6 121 13 195 16 129 6 174 16 136 31 -10 4 -49 4 -87 1 -42 -4 -71 -2 -75 4 -3 6 11 25 33 44 48 41 96 134 103 198 5 47 7 50 60 79 30 17 58 35 61 40 9 14 0 45 -17 59 -19 16 -18 115 2 192 18 69 15 204 -6 277 -52 181 -53 184 -90 202 -86 41 -491 56 -680 25 -97 -16 -141 -30 -220 -72 l-45 -23 -895 -5 c-582 -3 -916 -9 -955 -16 -33 -6 -96 -15 -140 -21 -44 -5 -114 -16 -155 -25 -41 -9 -102 -20 -135 -26 -33 -6 -64 -15 -70 -19 -5 -5 -28 -11 -50 -15 -22 -4 -44 -11 -50 -15 -5 -4 -25 -11 -43 -15 -18 -4 -45 -13 -60 -21 -15 -8 -34 -14 -43 -14 -9 0 -29 -6 -45 -14 -39 -19 -124 -31 -124 -18 0 6 9 14 20 17 11 3 20 10 20 15 0 5 13 11 29 15 16 3 35 13 42 21 6 8 17 14 24 14 11 0 56 19 95 39 9 5 31 12 50 16 19 4 40 11 45 15 26 19 343 95 440 105 33 4 85 11 115 15 30 5 224 12 430 15 206 2 380 5 387 5 6 0 21 15 33 34 22 37 65 88 145 171 28 29 59 63 71 76 42 48 88 80 175 120 34 16 110 19 248 11 96 -5 146 -12 149 -20 2 -7 20 -12 40 -12 21 0 44 -5 52 -10 13 -9 13 -11 0 -20 -19 -13 -87 -2 -118 18 -31 20 -302 10 -335 -13 -12 -8 -28 -15 -35 -15 -8 0 -33 -14 -56 -32 -44 -35 -315 -307 -306 -309 3 -1 220 0 484 1 l478 2 77 41 76 41 177 1 c97 0 180 3 184 7 4 4 -4 12 -17 18 -13 6 -46 24 -74 41 -27 16 -61 35 -75 42 -14 6 -27 15 -30 19 -3 4 -17 12 -30 18 -14 5 -38 19 -55 30 -16 11 -37 23 -45 26 -20 8 -138 63 -173 80 -16 8 -41 14 -56 14 -15 0 -32 5 -39 12 -7 7 -33 18 -60 26 -208 59 -487 77 -893 57z m149 -129 c15 -9 16 -43 2 -51 -6 -4 -9 -19 -8 -33 2 -20 -1 -27 -15 -27 -10 0 -46 -27 -80 -61 -49 -47 -72 -62 -102 -67 -22 -3 -159 -7 -305 -7 -261 -1 -266 -1 -335 25 -78 29 -88 36 -80 56 13 35 203 105 345 128 220 36 547 57 578 37z m872 -16 c0 -5 -13 -10 -29 -10 -17 0 -33 5 -36 10 -4 6 8 10 29 10 20 0 36 -4 36 -10z m64 -16 c9 -3 16 -10 16 -16 0 -14 -63 -5 -68 10 -4 13 25 16 52 6z m-359 -29 c11 -6 47 -14 81 -17 57 -5 235 -67 259 -90 6 -6 -5 -22 -33 -45 l-42 -35 -327 1 c-216 1 -332 6 -340 13 -17 14 -17 48 0 48 8 0 19 11 25 25 8 16 23 28 42 31 16 4 30 10 30 14 0 17 87 48 148 54 35 3 71 10 80 16 18 10 45 5 77 -15z m430 -15 c-3 -5 -12 -10 -20 -10 -8 0 -17 5 -20 10 -4 6 5 10 20 10 15 0 24 -4 20 -10z m346 -346 c11 -14 10 -21 -4 -46 -9 -16 -17 -34 -17 -40 0 -6 -16 -33 -36 -60 -20 -27 -45 -76 -55 -109 -18 -59 -25 -171 -13 -203 8 -22 24 -20 24 3 0 10 7 24 15 31 8 7 15 21 15 32 0 11 6 32 14 46 7 15 26 53 42 85 81 171 207 258 322 223 48 -14 106 -41 131 -60 42 -33 81 -76 81 -90 0 -24 -30 -33 -42 -13 -5 10 -16 17 -23 17 -8 0 -15 4 -15 9 0 5 -23 21 -52 36 -44 23 -61 27 -114 23 -54 -3 -69 -9 -116 -45 -50 -38 -148 -165 -148 -193 0 -7 -6 -24 -14 -38 -41 -81 -39 -111 8 -112 17 0 18 -5 12 -50 -4 -29 -2 -68 5 -93 6 -23 17 -80 24 -127 7 -47 16 -93 20 -102 10 -26 -21 -24 -37 2 -7 11 -19 20 -26 20 -8 0 -28 14 -45 32 -40 39 -101 67 -149 68 -56 0 -91 16 -83 39 5 16 -1 20 -32 23 -62 8 -235 -3 -281 -18 -25 -8 -84 -14 -140 -14 -71 0 -104 -4 -118 -15 -12 -9 -43 -14 -86 -15 -57 0 -69 -3 -78 -20 -7 -12 -21 -20 -38 -20 -25 0 -26 -1 -6 -14 11 -8 30 -16 42 -18 44 -6 26 -23 -33 -30 -33 -3 -73 -12 -90 -18 -16 -6 -59 -18 -95 -26 -36 -8 -105 -24 -155 -35 -132 -30 -171 -34 -181 -18 -4 7 -7 110 -7 228 1 193 3 216 19 228 10 7 23 13 28 13 19 0 188 28 331 55 77 15 172 32 210 39 39 7 79 17 90 23 11 6 26 8 32 6 7 -3 36 2 65 11 29 8 82 20 118 26 94 16 262 69 285 90 11 10 29 20 39 22 11 1 21 9 24 16 5 15 -179 17 -194 2 -6 -6 -51 -15 -100 -20 -49 -5 -132 -17 -184 -26 -52 -8 -120 -19 -151 -23 -31 -5 -79 -13 -105 -19 -56 -12 -156 -31 -229 -42 -136 -20 -204 -33 -249 -46 -80 -23 -100 -19 -115 21 -7 19 -23 48 -37 64 -13 16 -25 39 -26 52 l-3 24 165 2 c91 2 217 8 280 13 63 6 201 15 305 20 105 5 219 14 255 20 36 6 115 15 175 20 161 13 233 30 237 55 8 54 273 122 309 79z m-3191 -123 c0 -13 -105 -60 -150 -67 -23 -4 -47 -1 -61 7 -24 13 -24 13 11 20 108 21 133 28 143 38 13 13 57 15 57 2z m3550 -188 c43 -30 83 -82 102 -131 25 -66 42 -210 28 -246 -5 -15 -10 -42 -10 -60 0 -18 -7 -41 -15 -52 -8 -10 -15 -27 -15 -37 0 -30 -68 -105 -106 -117 -43 -15 -90 0 -127 38 -31 32 -77 116 -77 141 0 9 -5 22 -12 29 -14 14 -13 259 1 277 5 5 11 22 15 38 3 15 11 27 16 27 6 0 10 6 10 14 0 15 34 54 70 79 31 22 89 22 120 0z m-2218 -33 c25 -11 63 -39 84 -62 68 -73 86 -123 120 -323 9 -48 -22 -175 -59 -244 -78 -147 -190 -204 -292 -150 -66 36 -145 132 -161 196 -4 15 -12 31 -18 35 -26 17 -18 225 13 346 23 87 100 180 173 205 60 20 89 20 140 -3z m-1882 -169 c102 -3 241 -3 310 1 69 4 265 8 436 10 256 2 314 1 328 -11 10 -8 13 -17 7 -20 -5 -4 -78 -8 -163 -9 -84 -2 -170 -8 -191 -13 -54 -14 -416 -33 -647 -33 -186 0 -438 17 -470 31 -8 4 -44 12 -80 17 -36 6 -64 16 -63 21 4 18 67 24 208 18 77 -3 223 -8 325 -12z m108 -219 c3 -10 -16 -12 -84 -10 -60 2 -89 7 -92 16 -3 10 16 12 84 10 60 -2 89 -7 92 -16z m2697 -72 c3 -6 -1 -13 -10 -16 -19 -8 -30 0 -20 15 8 14 22 14 30 1z m822 -83 c19 -42 63 -85 94 -92 21 -5 29 -12 27 -23 -3 -15 -26 -17 -198 -19 -294 -3 -1008 -32 -1070 -43 -30 -6 -139 -13 -242 -17 -170 -5 -188 -4 -194 11 -4 9 -3 20 0 24 8 8 87 17 281 32 162 12 249 24 490 65 78 13 116 20 240 43 56 11 395 38 511 41 44 1 52 -2 61 -22z m-3360 -113 c2 -6 -15 -33 -37 -61 -22 -28 -40 -56 -40 -61 0 -6 -15 -18 -34 -27 -31 -15 -37 -15 -71 -1 -45 19 -157 114 -152 130 8 25 326 44 334 20z m623 -38 c410 -3 430 -5 430 -50 0 -23 -2 -24 -137 -29 -429 -18 -583 -27 -721 -42 -85 -9 -168 -15 -185 -13 -47 4 -41 30 11 46 23 8 64 34 90 58 43 40 51 43 87 39 22 -3 213 -7 425 -9z"/> <path d="M6048 3915 c-2 -3 -33 -7 -69 -9 -96 -6 -201 -26 -334 -65 -58 -17 -166 -38 -210 -42 -5 0 -1 -4 10 -9 11 -5 61 -9 111 -9 70 -1 95 3 104 14 9 11 32 15 81 15 37 0 80 5 96 11 15 6 66 13 113 15 47 3 105 12 129 20 25 8 80 14 123 14 83 0 97 10 48 35 -27 14 -189 22 -202 10z"/> <path d="M6868 4038 c4 -87 10 -102 33 -93 19 8 59 72 59 93 0 24 -55 82 -78 82 -17 0 -18 -7 -14 -82z"/> <path d="M6762 4058 c-11 -18 -22 -51 -24 -73 -3 -38 -1 -41 35 -59 55 -26 61 -15 45 83 -14 89 -25 99 -56 49z"/> <path d="M6952 3897 c-18 -18 -32 -42 -32 -54 0 -28 71 -136 82 -125 12 12 5 205 -7 209 -6 2 -25 -12 -43 -30z"/> <path d="M6724 3835 c-4 -9 -2 -33 5 -53 6 -20 12 -50 13 -67 2 -21 8 -30 21 -30 13 0 25 18 43 60 13 33 22 65 20 71 -2 6 -17 14 -33 17 -15 3 -36 9 -45 12 -12 5 -20 1 -24 -10z"/> <path d="M6866 3738 c-4 -12 -14 -47 -24 -76 -25 -80 4 -111 73 -78 44 21 53 50 26 87 -12 15 -21 32 -21 37 0 5 -11 19 -24 31 l-24 23 -6 -24z"/> <path d="M4525 4051 c-39 -39 -47 -49 -70 -89 -24 -40 -16 -55 43 -87 23 -12 49 -28 57 -35 22 -19 46 4 39 38 -3 15 -6 65 -7 112 -2 98 -13 109 -62 61z"/> <path d="M4676 4073 c-3 -3 -6 -60 -6 -125 0 -110 1 -118 19 -118 11 0 21 3 23 8 2 4 24 25 51 46 26 21 47 43 47 50 0 16 -86 123 -108 135 -11 6 -22 7 -26 4z"/> <path d="M4758 3769 c-47 -24 -58 -34 -58 -54 0 -22 79 -157 99 -169 14 -9 39 82 47 172 8 97 5 99 -88 51z"/> <path d="M4406 3781 c-12 -19 26 -202 47 -228 13 -18 26 -16 34 5 4 9 20 36 36 59 15 24 31 58 34 77 5 34 4 35 -43 56 -27 12 -57 26 -66 31 -22 11 -35 11 -42 0z"/> <path d="M4598 3583 c-11 -27 -29 -64 -39 -84 -11 -20 -19 -44 -19 -53 0 -23 32 -36 87 -36 110 0 121 20 66 128 -54 110 -63 114 -95 45z"/> <path d="M7187 3170 c-35 -6 -86 -49 -87 -72 0 -18 -73 -107 -82 -102 -5 3 -25 39 -43 80 l-34 74 -56 0 c-71 0 -78 -15 -33 -77 47 -67 98 -151 98 -164 0 -10 -91 -118 -177 -212 -24 -26 -41 -52 -38 -57 8 -13 70 -13 117 0 30 9 45 24 89 90 32 49 59 80 70 80 15 0 59 -70 59 -94 0 -4 9 -21 21 -37 18 -25 27 -29 68 -29 62 0 79 17 51 53 -11 14 -20 27 -20 30 0 3 -22 38 -50 79 -53 78 -60 107 -32 136 9 10 46 51 82 92 35 41 73 83 83 93 37 37 -2 54 -86 37z"/> <path d="M6430 3123 c-78 -8 -80 -9 -80 -61 0 -26 -7 -78 -15 -117 -8 -38 -15 -88 -15 -110 -1 -22 -7 -67 -15 -100 -8 -33 -15 -77 -15 -99 l0 -38 48 7 c26 4 52 11 59 17 7 5 13 37 15 71 3 58 5 62 28 65 14 1 58 8 99 14 65 11 80 18 121 55 64 58 87 142 58 210 -35 82 -110 104 -288 86z m170 -113 c49 -49 6 -128 -80 -148 -66 -15 -77 -15 -83 2 -8 21 10 135 24 152 19 23 114 19 139 -6z"/> <path d="M5993 3103 c-24 -5 -63 -51 -63 -75 0 -7 -7 -23 -15 -35 -8 -12 -44 -77 -79 -145 -35 -68 -73 -139 -84 -158 -44 -72 -61 -108 -55 -114 4 -3 30 -6 58 -6 57 0 77 14 89 62 9 39 31 47 137 50 l94 3 3 -42 3 -43 61 0 60 0 -5 33 c-2 17 -9 46 -15 62 -6 17 -18 59 -27 95 -9 36 -23 88 -30 115 -8 28 -22 85 -31 128 -16 77 -16 77 -48 76 -17 -1 -41 -4 -53 -6z m45 -235 c10 -42 16 -81 13 -86 -9 -14 -128 -25 -136 -13 -5 9 49 131 79 179 13 21 22 4 44 -80z"/> <path d="M5430 3069 c-25 -4 -64 -8 -86 -8 -41 -1 -62 -20 -49 -42 3 -5 -1 -42 -10 -83 -8 -41 -15 -94 -15 -117 0 -22 -7 -67 -15 -98 -8 -31 -16 -84 -17 -116 l-3 -60 45 3 c25 2 51 9 58 16 7 7 15 43 19 82 6 74 13 84 54 84 33 0 43 -12 64 -77 24 -74 32 -81 95 -85 51 -3 55 -1 58 20 2 13 -2 30 -9 39 -16 18 -34 50 -49 81 -12 28 1 58 30 67 27 9 54 51 70 108 10 38 10 56 0 91 -14 53 -29 67 -90 89 -49 18 -78 19 -150 6z m105 -103 c29 -13 35 -20 35 -46 0 -40 -30 -84 -68 -99 -16 -7 -51 -11 -78 -9 -42 3 -49 6 -46 23 1 11 5 43 8 70 4 28 13 56 22 63 21 16 85 15 127 -2z"/> <path d="M4846 3031 c-71 -23 -155 -108 -184 -184 -58 -155 -1 -284 142 -321 56 -15 63 -15 123 4 35 11 73 25 86 31 30 16 97 80 108 104 5 11 14 27 21 36 6 9 8 24 5 32 -5 14 -16 16 -54 11 -38 -5 -54 -13 -76 -40 -36 -42 -84 -72 -122 -74 -65 -4 -85 1 -110 27 -21 24 -25 37 -25 92 0 73 19 113 74 155 67 50 165 44 198 -14 16 -28 21 -30 72 -30 30 0 58 5 61 11 19 30 -50 124 -117 159 -47 25 -132 25 -202 1z"/> <path d="M4287 2997 c-92 -47 -128 -165 -69 -224 29 -30 51 -41 149 -68 48 -14 63 -23 67 -41 8 -32 -2 -52 -35 -69 -56 -29 -107 -15 -132 35 -17 34 -90 42 -106 11 -27 -50 17 -114 99 -144 55 -21 97 -21 130 -2 14 8 33 14 43 15 26 0 74 39 97 78 31 52 26 105 -12 148 -32 34 -44 39 -158 66 -50 12 -60 21 -60 60 0 48 70 83 125 62 8 -4 22 -19 31 -35 13 -25 20 -29 58 -29 62 0 73 17 48 74 -28 62 -77 86 -169 85 -46 -1 -80 -8 -106 -22z"/> <path d="M3757 2972 c-59 -21 -138 -96 -172 -163 -34 -68 -36 -189 -4 -243 48 -82 142 -118 255 -97 123 22 206 100 249 234 19 60 19 72 -2 133 -23 68 -58 111 -111 134 -55 25 -147 25 -215 2z m160 -102 c81 -29 84 -168 5 -249 -54 -55 -165 -68 -217 -26 -28 23 -30 29 -30 92 0 54 5 76 24 106 43 69 140 104 218 77z"/> <path d="M3325 2950 c-33 -4 -96 -8 -140 -9 -48 -1 -86 -6 -93 -13 -7 -7 -12 -31 -12 -55 0 -40 2 -43 28 -43 15 0 44 5 66 9 59 14 67 7 60 -53 -3 -28 -12 -76 -20 -107 -8 -31 -14 -75 -14 -98 0 -22 -7 -59 -16 -82 -15 -36 -15 -42 -2 -55 11 -12 26 -13 63 -7 57 10 57 10 75 180 27 254 19 238 107 229 58 -6 63 -5 78 18 9 13 19 40 22 60 l6 36 -74 -1 c-41 -1 -101 -5 -134 -9z"/> <path d="M2915 2931 l-40 -6 -7 -95 c-3 -52 -11 -113 -17 -135 -6 -22 -11 -54 -11 -71 0 -18 -12 -48 -30 -72 -28 -39 -33 -42 -79 -42 -76 0 -85 14 -76 119 3 47 15 124 24 171 18 86 15 128 -11 121 -7 -2 -31 -7 -53 -10 l-40 -6 -8 -80 c-4 -44 -12 -93 -17 -109 -6 -16 -10 -69 -10 -118 0 -129 23 -166 118 -188 43 -10 66 -10 115 0 53 11 68 20 107 60 50 53 80 124 80 191 0 24 4 59 10 78 5 18 14 67 20 109 10 76 5 94 -25 90 -5 0 -28 -4 -50 -7z"/> <path d="M2215 2889 c-21 -6 -36 -20 -49 -46 -23 -48 -23 -48 -97 -190 -67 -129 -101 -190 -136 -242 -13 -18 -20 -37 -17 -42 7 -11 104 -12 122 -1 7 5 22 28 35 53 l22 44 90 7 c50 4 95 6 102 3 6 -2 13 -21 15 -42 3 -38 4 -38 53 -44 74 -9 81 2 55 87 -20 66 -32 108 -64 227 -8 28 -19 78 -25 111 -16 86 -31 97 -106 75z m37 -201 c39 -126 35 -134 -52 -139 -46 -3 -55 -1 -58 14 -4 22 69 177 84 177 6 0 18 -24 26 -52z"/> </g> </svg> 